<svg xmlns="http://www.w3.org/2000/svg" width="260.507" height="303.875" viewBox="0 0 260.507 303.875">
  <g id="ae_logo" transform="translate(-1116.289 -192.685)">
    <g id="Group_3" data-name="Group 3">
      <path id="InnerFill" d="M1305.064,265.819h107.81l25.784,44.089,40.235,68.8V399.3l-18.17,10.9H1257.216l-15.748-14.536V378.707Z" transform="translate(-113.658 79.274)" fill="#00d1b2"/>
      <path id="Flask" d="M1314.372,57.685h93.043V90.338c-3.053,7.977-13.026,3.75-14.241,11.35v59.064l86.871,148.1s24.761,38.534-28.483,38.534H1270.3s-47.745,3.861-24.765-38.534,85.447-148.1,85.447-148.1c.171-66.6.087-58.71,0-59.064-.929-7.791-12.461-2.413-16.615-11.35Z" transform="translate(-116 142)" fill="none" stroke="#00d1b2" stroke-width="14"/>
      <g id="Group_2" data-name="Group 2" transform="translate(1180.16 386.298)">
        <path id="Path_3" data-name="Path 3" d="M72.4,159.385s47.012-34.964,59.613,19.832c3.956,17.206-1.214,39.706-24.742,46.1-29.529,3.837-31.61-32.4-31.61-32.4L132.013,180.6" transform="translate(-72.4 -148.395)" fill="none" stroke="#fff" stroke-linejoin="round" stroke-width="11"/>
        <path id="Path_4" data-name="Path 4" d="M60.818,64.089S13.805,97.93,1.205,44.894C-2.751,28.24,2.419,6.463,25.947.275c29.529-3.714,31.61,31.361,31.61,31.361L1.205,43.551" transform="translate(76.261 1.973)" fill="none" stroke="#fff" stroke-linejoin="round" stroke-width="11"/>
      </g>
    </g>
  </g>
</svg>
