<svg width="230" height="230" viewBox="0 0 230 230" fill="none" xmlns="http://www.w3.org/2000/svg">
<circle cx="115" cy="115" r="115" fill="#DC143C"/>
<path d="M39.33 154C36.5433 154 33.9766 153.303 31.63 151.91C29.3566 150.517 27.5233 148.683 26.13 146.41C24.7366 144.063 24.04 141.497 24.04 138.71V132.66H38.56V138.05C38.56 138.417 38.67 138.747 38.89 139.04C39.1833 139.26 39.5133 139.37 39.88 139.37H87.29C87.6566 139.37 87.95 139.26 88.17 139.04C88.4633 138.747 88.61 138.417 88.61 138.05V122.98C88.61 122.613 88.4633 122.32 88.17 122.1C87.95 121.88 87.6566 121.77 87.29 121.77H39.33C36.5433 121.77 33.9766 121.073 31.63 119.68C29.3566 118.287 27.5233 116.453 26.13 114.18C24.7366 111.833 24.04 109.23 24.04 106.37V90.09C24.04 87.3033 24.7366 84.7733 26.13 82.5C27.5233 80.1533 29.3566 78.2833 31.63 76.89C33.9766 75.4967 36.5433 74.8 39.33 74.8H87.95C90.7366 74.8 93.2666 75.4967 95.54 76.89C97.8866 78.2833 99.7566 80.1533 101.15 82.5C102.543 84.7733 103.24 87.3033 103.24 90.09V96.14H88.61V90.75C88.61 90.3833 88.4633 90.09 88.17 89.87C87.95 89.5767 87.6566 89.43 87.29 89.43H39.88C39.5133 89.43 39.1833 89.5767 38.89 89.87C38.67 90.09 38.56 90.3833 38.56 90.75V105.82C38.56 106.187 38.67 106.48 38.89 106.7C39.1833 106.92 39.5133 107.03 39.88 107.03H87.95C90.7366 107.03 93.2666 107.727 95.54 109.12C97.8866 110.513 99.7566 112.383 101.15 114.73C102.543 117.003 103.24 119.57 103.24 122.43V138.71C103.24 141.497 102.543 144.063 101.15 146.41C99.7566 148.683 97.8866 150.517 95.54 151.91C93.2666 153.303 90.7366 154 87.95 154H39.33ZM115.579 154V74.8H176.299C179.086 74.8 181.616 75.4967 183.889 76.89C186.236 78.2833 188.106 80.1533 189.499 82.5C190.892 84.7733 191.589 87.3033 191.589 90.09V105.6C191.589 106.553 191.516 107.47 191.369 108.35C191.222 109.23 190.966 110.073 190.599 110.88C191.846 112.567 192.836 114.327 193.569 116.16C194.376 117.993 194.779 119.827 194.779 121.66V138.71C194.779 141.497 194.082 144.063 192.689 146.41C191.296 148.683 189.426 150.517 187.079 151.91C184.732 153.303 182.166 154 179.379 154H115.579ZM131.419 139.37H178.719C179.086 139.37 179.416 139.26 179.709 139.04C180.002 138.747 180.149 138.417 180.149 138.05V122.32C180.149 121.953 180.002 121.66 179.709 121.44C179.416 121.147 179.086 121 178.719 121H131.419C131.052 121 130.722 121.147 130.429 121.44C130.209 121.66 130.099 121.953 130.099 122.32V138.05C130.099 138.417 130.209 138.747 130.429 139.04C130.722 139.26 131.052 139.37 131.419 139.37ZM131.419 106.37H175.639C176.006 106.37 176.299 106.26 176.519 106.04C176.739 105.747 176.849 105.417 176.849 105.05V90.75C176.849 90.3833 176.739 90.09 176.519 89.87C176.299 89.5767 176.006 89.43 175.639 89.43H131.419C131.052 89.43 130.722 89.5767 130.429 89.87C130.209 90.09 130.099 90.3833 130.099 90.75V105.05C130.099 105.417 130.209 105.747 130.429 106.04C130.722 106.26 131.052 106.37 131.419 106.37Z" fill="white"/>
</svg>
